<?xml version="1.0" encoding="utf-8"?>
<!-- Generator: Adobe Illustrator 21.0.0, SVG Export Plug-In . SVG Version: 6.00 Build 0)  -->
<svg version="1.1" id="Layer_1" xmlns="http://www.w3.org/2000/svg" xmlns:xlink="http://www.w3.org/1999/xlink" x="0px" y="0px"
	 viewBox="0 0 96 96" style="enable-background:new 0 0 96 96;" xml:space="preserve">
<style type="text/css">
	.st0{fill:#58BA53;}
	.st1{fill:#FFFFFF;}
	.st2{fill:#58BA53;stroke:#FFFFFF;stroke-width:2;stroke-miterlimit:10;}
</style>
<path class="st0" d="M45,12c8,0,11,6,11,12c0,8-5,14-11,14s-11-6-11-14C34,18,37,12,45,12z"/>
<path class="st0" d="M39,36c0,0,0,4,6,4s6-4,6-4s8,2,10,6s2,24,2,24H27c0,0,0-20,2-24S39,36,39,36z"/>
<g>
	<path class="st0" d="M8,85l-1-1c0-2.1,0.1-20.4,2.1-24.4c2.2-4.4,10.3-6.4,10.7-6.5l1.2,1c0,0.3,0.2,3,5,3s5-2.7,5-3l1.2-1
		c0.3,0.1,8.5,2.2,10.7,6.5C44.9,63.7,45,82,45,84l-1,1H8z"/>
	<path class="st1" d="M32,54c0,0,8,2,10,6s2,24,2,24H8c0,0,0-20,2-24s10-6,10-6s0,4,6,4S32,54,32,54 M32.5,52.1L30,54v-0.1
		c0,0.3-0.3,2.1-4,2.1s-4-1.7-4-2.1V54l-2.5-1.9c-0.9,0.2-9,2.4-11.3,7C6.1,63.3,6,80.6,6,84l2,2h36l2-2c0-3.4-0.1-20.7-2.2-24.9
		C41.4,54.4,33.4,52.3,32.5,52.1L32.5,52.1z"/>
</g>
<g>
	<path class="st0" d="M52,77l-1-1c0-2.1,0.1-20.4,2.1-24.4c2.2-4.4,10.3-6.4,10.7-6.5l1.2,1c0,0.3,0.2,3,5,3s5-2.7,5-3l1.2-1
		c0.3,0.1,8.5,2.2,10.7,6.5C88.9,55.7,89,74,89,76l-1,1H52z"/>
	<path class="st1" d="M76,46c0,0,8,2,10,6s2,24,2,24H52c0,0,0-20,2-24s10-6,10-6s0,4,6,4S76,46,76,46 M76.5,44.1L74,46v-0.1
		c0,0.3-0.3,2.1-4,2.1s-4-1.7-4-2.1V46l-2.5-1.9c-0.9,0.2-9,2.4-11.3,7C50.1,55.3,50,72.6,50,76l2,2h36l2-2c0-3.4-0.1-20.7-2.2-24.9
		C85.4,46.4,77.4,44.3,76.5,44.1L76.5,44.1z"/>
</g>
<g>
	<path class="st2" d="M26,28c8,0,11,6,11,12c0,8-1,14-7,14s-15-6-15-14C15,34,18,28,26,28"/>
</g>
<g>
	<path class="st2" d="M70,20c8,0,11,6,11,12c0,8-9,14-15,14s-7-6-7-14C59,26,62,20,70,20"/>
</g>
</svg>
