<?xml version="1.0" encoding="utf-8"?>
<!-- Generator: Adobe Illustrator 21.0.0, SVG Export Plug-In . SVG Version: 6.00 Build 0)  -->
<svg version="1.1" id="Layer_1" xmlns="http://www.w3.org/2000/svg" xmlns:xlink="http://www.w3.org/1999/xlink" x="0px" y="0px"
	 viewBox="0 0 96 96" style="enable-background:new 0 0 96 96;" xml:space="preserve">
<style type="text/css">
	.st0{fill:#C0C0C0;}
	.st1{fill:#FFFFFF;}
</style>
<path class="st0" d="M45,8c8,0,11,6,11,12c0,8-5,14-11,14s-11-6-11-14C34,14,37,8,45,8z"/>
<path class="st0" d="M39,34c0,0,0,4,6,4s6-4,6-4s8,2,10,6s2,24,2,24H38c0,0-11-20-9-24S39,34,39,34z"/>
<g>
	<path class="st0" d="M28,57c-6.7,0-12-6.6-12-15c0-6.3,3.2-13,12-13s12,6.7,12,13C40,50.4,34.7,57,28,57z"/>
	<path class="st1" d="M28,30c8,0,11,6,11,12c0,8-5,14-11,14s-11-6-11-14C17,36,20,30,28,30 M28,28c-7.9,0-13,5.5-13,14
		c0,9,5.7,16,13,16s13-7,13-16C41,33.5,35.9,28,28,28L28,28z"/>
</g>
<g>
	<path class="st0" d="M10,87l-1-1c0-2.1,0.1-20.4,2.1-24.4c2.2-4.4,10.3-6.4,10.7-6.5l1.2,1c0,0.3,0.2,3,5,3s5-2.7,5-3l1.2-1
		c0.3,0.1,8.5,2.2,10.7,6.5c2,4.1,2.1,22.4,2.1,24.4l-1,1H10z"/>
	<path class="st1" d="M34,56c0,0,8,2,10,6s2,24,2,24H10c0,0,0-20,2-24s10-6,10-6s0,4,6,4S34,56,34,56 M34.5,54.1L32,56l0-0.1
		c0,0.3-0.3,2.1-4,2.1s-4-1.7-4-2.1l0,0.1l-2.5-1.9c-0.9,0.2-9,2.4-11.3,7C8.1,65.3,8,82.6,8,86l2,2h36l2-2c0-3.4-0.1-20.7-2.2-24.9
		C43.4,56.4,35.4,54.3,34.5,54.1L34.5,54.1z"/>
</g>
<g>
	<path class="st0" d="M68,47c-6.7,0-12-6.6-12-15c0-6.3,3.2-13,12-13s12,6.7,12,13C80,40.4,74.7,47,68,47z"/>
	<path class="st1" d="M68,20c8,0,11,6,11,12c0,8-5,14-11,14s-11-6-11-14C57,26,60,20,68,20 M68,18c-7.9,0-13,5.5-13,14
		c0,9,5.7,16,13,16s13-7,13-16C81,23.5,75.9,18,68,18L68,18z"/>
</g>
<g>
	<path class="st0" d="M50,77l-1-1c0-2.1,0.1-20.4,2.1-24.4c2.2-4.4,10.3-6.4,10.7-6.5l1.2,1c0,0.3,0.2,3,5,3s5-2.7,5-3l1.2-1
		c0.3,0.1,8.5,2.2,10.7,6.5c2,4.1,2.1,22.4,2.1,24.4l-1,1H50z"/>
	<path class="st1" d="M74,46c0,0,8,2,10,6s2,24,2,24H50c0,0,0-20,2-24s10-6,10-6s0,4,6,4S74,46,74,46 M74.5,44.1L72,46l0-0.1
		c0,0.3-0.3,2.1-4,2.1s-4-1.7-4-2.1l0,0.1l-2.5-1.9c-0.9,0.2-9,2.4-11.3,7C48.1,55.3,48,72.6,48,76l2,2h36l2-2
		c0-3.4-0.1-20.7-2.2-24.9C83.4,46.4,75.4,44.3,74.5,44.1L74.5,44.1z"/>
</g>
</svg>
