<?xml version="1.0" encoding="utf-8"?>
<!-- Generator: Adobe Illustrator 21.0.0, SVG Export Plug-In . SVG Version: 6.00 Build 0)  -->
<svg version="1.1" id="Layer_1" xmlns="http://www.w3.org/2000/svg" xmlns:xlink="http://www.w3.org/1999/xlink" x="0px" y="0px"
	 viewBox="0 0 96 96" style="enable-background:new 0 0 96 96;" xml:space="preserve">
<style type="text/css">
	.st0{fill:#58BA53;}
	.st1{fill:#FFFFFF;}
	.st2{fill:#C0C0C0;}
</style>
<g>
	<rect x="23" y="17" class="st0" width="34" height="34"/>
	<path class="st1" d="M56,18v32H24V18H56 M58,16h-2H24h-2v2v32v2h2h32h2v-2V18V16L58,16z"/>
</g>
<g>
	<path class="st0" d="M64,51c-7.2,0-13-5.8-13-13s5.8-13,13-13s13,5.8,13,13S71.2,51,64,51z"/>
	<path class="st1" d="M64,26c6.6,0,12,5.4,12,12s-5.4,12-12,12s-12-5.4-12-12S57.4,26,64,26 M64,24c-7.7,0-14,6.3-14,14
		s6.3,14,14,14s14-6.3,14-14S71.7,24,64,24L64,24z"/>
</g>
<g>
	<polygon class="st0" points="70.3,51 66.8,39.6 76,32.8 85.2,39.6 81.7,51 	"/>
	<path class="st1" d="M76,34l8,6l-3,10H71l-3-10L76,34 M76,31.5l-1.2,0.9l-8,6l-1.1,0.8l0.4,1.3l3,10l0.4,1.4H71h10h1.5l0.4-1.4
		l3-10l0.4-1.3l-1.1-0.8l-8-6L76,31.5L76,31.5z"/>
</g>
<g>
	
		<rect x="11.8" y="28.8" transform="matrix(0.2425 -0.9701 0.9701 0.2425 -20.9588 49.1561)" class="st0" width="18.5" height="18.5"/>
	<path class="st1" d="M15,28l16,4l-4,16l-16-4L15,28 M13.5,25.6l-0.5,1.9l-4,16l-0.5,1.9l1.9,0.5l16,4l1.9,0.5l0.5-1.9l4-16l0.5-1.9
		l-1.9-0.5l-16-4L13.5,25.6L13.5,25.6z"/>
</g>
<path class="st2" d="M90,42H6c-1.1,0-2,0.9-2,2v6h4l6,40h68l6-40h4v-6C92,42.9,91.1,42,90,42z M64,64c0,1.1-0.9,2-2,2H34
	c-1.1,0-2-0.9-2-2V52c0-1.1,0.9-2,2-2h28c1.1,0,2,0.9,2,2V64z"/>
<rect x="13.7" y="24.8" transform="matrix(0.4472 -0.8944 0.8944 0.4472 -4.2708 47.1589)" class="st2" width="44.7" height="4.5"/>
<rect x="57.8" y="4.6" transform="matrix(0.8944 -0.4472 0.4472 0.8944 -5.7058 29.6999)" class="st2" width="4.5" height="44.7"/>
</svg>
