<?xml version="1.0" encoding="utf-8"?>
<!-- Generator: Adobe Illustrator 21.0.0, SVG Export Plug-In . SVG Version: 6.00 Build 0)  -->
<svg version="1.1" id="Layer_1" xmlns="http://www.w3.org/2000/svg" xmlns:xlink="http://www.w3.org/1999/xlink" x="0px" y="0px"
	 viewBox="0 0 96 96" style="enable-background:new 0 0 96 96;" xml:space="preserve">
<style type="text/css">
	.st0{fill:none;stroke:#C0C0C0;stroke-width:2;stroke-linecap:round;stroke-linejoin:round;stroke-miterlimit:10;}
	.st1{fill:none;stroke:#C0C0C0;stroke-width:2;stroke-linecap:round;stroke-miterlimit:10;}
	.st2{fill:#C0C0C0;stroke:#C0C0C0;stroke-width:2;stroke-linecap:round;stroke-linejoin:round;stroke-miterlimit:10;}
	.st3{fill:none;stroke:#58BA53;stroke-width:2;stroke-linecap:round;stroke-linejoin:round;stroke-miterlimit:10;}
	.st4{fill:#58BA53;stroke:#58BA53;stroke-width:2;stroke-linecap:round;stroke-linejoin:round;stroke-miterlimit:10;}
	.st5{fill:#58BA53;}
</style>
<rect x="3" y="10" class="st0" width="90" height="52"/>
<line class="st1" x1="48" y1="3" x2="48" y2="10"/>
<line class="st0" x1="48" y1="62" x2="48" y2="93"/>
<line class="st0" x1="48" y1="71" x2="68" y2="93"/>
<line class="st0" x1="48" y1="71" x2="28" y2="93"/>
<line class="st0" x1="40" y1="79" x2="48" y2="83"/>
<line class="st0" x1="48" y1="83" x2="56" y2="79"/>
<rect x="3" y="61" class="st2" width="90" height="4"/>
<polygon class="st3" points="34,25 48,18 62,25 62,41 48,48 34,41 "/>
<polygon class="st4" points="34,25 48,32 62,25 62,41 48,48 34,41 "/>
<polyline class="st3" points="29,18 29,53 66,53 "/>
<line class="st3" x1="76" y1="19" x2="86" y2="19"/>
<line class="st3" x1="72" y1="23" x2="86" y2="23"/>
<line class="st3" x1="72" y1="27" x2="86" y2="27"/>
<line class="st3" x1="72" y1="31" x2="86" y2="31"/>
<line class="st3" x1="72" y1="35" x2="80" y2="35"/>
<line class="st3" x1="76" y1="39" x2="86" y2="39"/>
<line class="st3" x1="72" y1="43" x2="86" y2="43"/>
<line class="st3" x1="72" y1="47" x2="86" y2="47"/>
<line class="st3" x1="72" y1="51" x2="80" y2="51"/>
<circle class="st5" cx="10" cy="19" r="1"/>
<circle class="st5" cx="10" cy="26" r="1"/>
<circle class="st5" cx="10" cy="33" r="1"/>
<circle class="st5" cx="10" cy="40" r="1"/>
<line class="st3" x1="14" y1="19" x2="23" y2="19"/>
<line class="st3" x1="14" y1="26" x2="23" y2="26"/>
<line class="st3" x1="14" y1="33" x2="23" y2="33"/>
<line class="st3" x1="14" y1="40" x2="23" y2="40"/>
</svg>
