<?xml version="1.0" encoding="utf-8"?>
<!-- Generator: Adobe Illustrator 21.0.0, SVG Export Plug-In . SVG Version: 6.00 Build 0)  -->
<svg version="1.1" id="Layer_1" xmlns="http://www.w3.org/2000/svg" xmlns:xlink="http://www.w3.org/1999/xlink" x="0px" y="0px"
	 viewBox="0 0 96 96" style="enable-background:new 0 0 96 96;" xml:space="preserve">
<style type="text/css">
	.st0{fill:none;stroke:#C0C0C0;stroke-width:2;stroke-linecap:round;stroke-linejoin:round;stroke-miterlimit:10;}
	.st1{fill:none;stroke:#58BA53;stroke-width:2;stroke-linecap:round;stroke-linejoin:round;stroke-miterlimit:10;}
	.st2{fill:#58BA53;stroke:#58BA53;stroke-width:2;stroke-linecap:round;stroke-linejoin:round;stroke-miterlimit:10;}
</style>
<path class="st0" d="M144,26"/>
<polyline class="st1" points="18,28 48,16 78,28 "/>
<path class="st0" d="M48,14"/>
<polyline class="st0" points="63,40 48,46 33,40 48,34 63,40 "/>
<polygon class="st0" points="48,0 93,18 93,78 48,96 3,78 3,18 "/>
<polyline class="st0" points="12,6 12,86 88,86 "/>
<polygon class="st2" points="48,70 48,80 18,68 18,28 28,32 28,62 "/>
<polygon class="st2" points="68,62 68,32 78,28 78,68 48,80 48,70 "/>
<polyline class="st0" points="28,32 48,24 68,32 "/>
<polygon class="st2" points="28,62 28,32 48,24 68,32 68,62 58,58 63,40 48,34 33,40 38,58 "/>
<polygon class="st2" points="48,46 63,40 63,56 48,62 33,56 33,40 "/>
</svg>
