<?xml version="1.0" encoding="utf-8"?>
<!-- Generator: Adobe Illustrator 21.0.0, SVG Export Plug-In . SVG Version: 6.00 Build 0)  -->
<svg version="1.1" id="Layer_1" xmlns="http://www.w3.org/2000/svg" xmlns:xlink="http://www.w3.org/1999/xlink" x="0px" y="0px"
	 viewBox="0 0 40 40" style="enable-background:new 0 0 40 40;" xml:space="preserve">
<style type="text/css">
	.st0{fill:#FFFFFF;}
	.st1{fill:none;stroke:#000000;stroke-width:5;stroke-miterlimit:10;}
	.st2{fill-rule:evenodd;clip-rule:evenodd;}
	.st3{fill-rule:evenodd;clip-rule:evenodd;stroke:#000000;stroke-miterlimit:10;}
</style>
<g>
	<path class="st0" d="M16.5,28.5c-6.6,0-12-5.4-12-12c0-6.6,5.4-12,12-12c6.6,0,12,5.4,12,12C28.5,23.1,23.1,28.5,16.5,28.5z"/>
	<path d="M16.5,7c5.2,0,9.5,4.3,9.5,9.5S21.7,26,16.5,26S7,21.7,7,16.5S11.3,7,16.5,7 M16.5,2C8.5,2,2,8.5,2,16.5S8.5,31,16.5,31
		S31,24.5,31,16.5S24.5,2,16.5,2L16.5,2z"/>
</g>
<g>
	<line class="st1" x1="24.5" y1="24.5" x2="34.5" y2="34.5"/>
	<line class="st2" x1="24.5" y1="24.5" x2="34.5" y2="34.5"/>
</g>
<circle class="st3" cx="34.5" cy="34.5" r="2"/>
<circle class="st3" cx="35.5" cy="49.5" r="0"/>
</svg>
