<?xml version="1.0" encoding="utf-8"?>
<!-- Generator: Adobe Illustrator 21.0.0, SVG Export Plug-In . SVG Version: 6.00 Build 0)  -->
<svg version="1.1" id="Layer_1" xmlns="http://www.w3.org/2000/svg" xmlns:xlink="http://www.w3.org/1999/xlink" x="0px" y="0px"
	 viewBox="0 0 96 96" style="enable-background:new 0 0 96 96;" xml:space="preserve">
<style type="text/css">
	.st0{fill:#58BA53;}
	.st1{fill:#C0C0C0;}
</style>
<g>
	<path class="st0" d="M25,6c8,0,10,6,10,10c0,8-4,16-10,16s-10-8-10-16C15,12,17,6,25,6z"/>
</g>
<g>
	<path class="st0" d="M41,38c-2-4-10-6-10-6s0,4.9-3.8,5.8L25,40l4,14l-4,8l-4-8l4-14l-2.2-2.2C19,36.9,19,32,19,32s-8,2-10,6
		s2,28,2,28h28C39,66,43,42,41,38z"/>
</g>
<polygon class="st1" points="88,62 88,86 64,86 "/>
<g>
	<path class="st0" d="M61,6c8,0,10,6,10,10c0,8-4,16-10,16s-10-8-10-16C51,12,53,6,61,6z"/>
</g>
<g>
	<path class="st0" d="M77,38c-2-4-10-6-10-6s0,4.9-3.8,5.8L61,40l4,14l-4,8l-4-8l4-14l-2.2-2.2C55,36.9,55,32,55,32s-8,2-10,6
		s2,28,2,28h28C75,66,79,42,77,38z"/>
</g>
<rect x="8" y="68" class="st1" width="72" height="8"/>
</svg>
