<?xml version="1.0" encoding="utf-8"?>
<!-- Generator: Adobe Illustrator 21.0.0, SVG Export Plug-In . SVG Version: 6.00 Build 0)  -->
<svg version="1.1" id="Layer_1" xmlns="http://www.w3.org/2000/svg" xmlns:xlink="http://www.w3.org/1999/xlink" x="0px" y="0px"
	 viewBox="0 0 96 96" style="enable-background:new 0 0 96 96;" xml:space="preserve">
<style type="text/css">
	.st0{fill:#C0C0C0;}
</style>
<rect x="8" y="32" class="st0" width="24" height="4"/>
<path class="st0" d="M95,10H1c-0.5,0-1,0.5-1,1v74c0,0.5,0.5,1,1,1h94c0.5,0,1-0.5,1-1V11C96,10.5,95.5,10,95,10z M42,14
	c0,0,6,0,8,0s4,2,4,4s0,4,0,4h-4v-4h-4v4h-4V14z M94,73c0,0.5-0.3,1.3-0.7,1.7l-8.6,8.6C84.3,83.7,83.5,84,83,84H13
	c-0.5,0-1.3-0.3-1.7-0.7l-8.6-8.6C2.3,74.3,2,73.5,2,73V27c0-0.5,0.5-1,1-1h90c0.5,0,1,0.5,1,1V73z"/>
<rect x="8" y="40" class="st0" width="24" height="16"/>
<rect x="8" y="60" class="st0" width="24" height="16"/>
<rect x="64" y="40" class="st0" width="24" height="16"/>
<rect x="64" y="60" class="st0" width="24" height="16"/>
<rect x="36" y="40" class="st0" width="24" height="16"/>
<rect x="36" y="60" class="st0" width="24" height="16"/>
<rect x="36" y="32" class="st0" width="24" height="4"/>
<rect x="64" y="32" class="st0" width="24" height="4"/>
</svg>
