<?xml version="1.0" encoding="utf-8"?>
<!-- Generator: Adobe Illustrator 21.0.0, SVG Export Plug-In . SVG Version: 6.00 Build 0)  -->
<svg version="1.1" id="Layer_1" xmlns="http://www.w3.org/2000/svg" xmlns:xlink="http://www.w3.org/1999/xlink" x="0px" y="0px"
	 viewBox="0 0 96 96" style="enable-background:new 0 0 96 96;" xml:space="preserve">
<style type="text/css">
	.st0{fill:none;stroke:#404040;stroke-width:2;stroke-linecap:round;stroke-linejoin:round;stroke-miterlimit:10;}
	.st1{fill:#404040;stroke:#404040;stroke-width:2;stroke-linecap:round;stroke-linejoin:round;stroke-miterlimit:10;}
	.st2{fill:none;stroke:#C0C0C0;stroke-width:2;stroke-linecap:round;stroke-linejoin:round;stroke-miterlimit:10;}
	.st3{fill:none;stroke:#404040;stroke-width:2;stroke-miterlimit:10;}
	.st4{fill:#A0A0A0;}
</style>
<g>
	<polyline class="st0" points="8,20 48,4 88,20 	"/>
	<g>
		<polygon class="st1" points="48,60.9 88,45.9 88,20 48,36 8,20 8,45.9 		"/>
		<path class="st1" d="M48.4,65.9C48.4,65.9,48.3,65.9,48.4,65.9C48.2,66,48.1,66,48,66c0,0,0,0,0,0c0,0,0,0,0,0s0,0,0,0
			c0,0,0,0,0,0c-0.1,0-0.2,0-0.3-0.1c0,0,0,0,0,0L8,51.1V77l40,16l40-16V51.1L48.4,65.9z"/>
	</g>
	<path class="st2" d="M48,4"/>
	<line class="st3" x1="68" y1="12" x2="28" y2="28"/>
	<path class="st4" d="M42,40H31c-0.6,0-1-0.4-1-1v-5c0-4.4,3.6-8,8-8h20c4.4,0,8,3.6,8,8v11.5c0,1.5-0.9,2.9-2.2,3.6l-9.2,4.6
		c-0.3,0.2-0.6,0.5-0.6,0.9V56H42v-3.7c0-1.4,0.8-2.7,2.1-3.3l8.3-4.1c1-0.5,1.7-1.5,1.7-2.7V41c0-1.7-1.3-3-3-3h-7
		C42.9,38,42,38.9,42,40L42,40z"/>
	<path class="st4" d="M52,70h-8c-1.1,0-2-0.9-2-2v-4c0-1.1,0.9-2,2-2h8c1.1,0,2,0.9,2,2v4C54,69.1,53.1,70,52,70z"/>
</g>
</svg>
