<?xml version="1.0" encoding="utf-8"?>
<!-- Generator: Adobe Illustrator 21.0.0, SVG Export Plug-In . SVG Version: 6.00 Build 0)  -->
<svg version="1.1" id="Layer_1" xmlns="http://www.w3.org/2000/svg" xmlns:xlink="http://www.w3.org/1999/xlink" x="0px" y="0px"
	 viewBox="0 0 96 96" style="enable-background:new 0 0 96 96;" xml:space="preserve">
<style type="text/css">
	.st0{fill:#C0C0C0;}
</style>
<g>
	<path class="st0" d="M42,83c0-0.6,0.5-1,1-1h10c0.5,0,1,0.4,1,1v10c0,0.6-0.5,1-1,1H43c-0.5,0-1-0.4-1-1V83z"/>
</g>
<g>
	<path class="st0" d="M32,3c0-0.5,0.5-1,1-1h30c0.5,0,1,0.5,1,1v4c0,0.6-0.5,1-1,1H33c-0.5,0-1-0.4-1-1V3z"/>
</g>
<path class="st0" d="M80,50c-8-8-12-12-12-20s-4-20-20-20S28,22,28,30s-4,12-12,20S8,64,8,64v14h80V66C88,66,88,58,80,50z M52,74h-8
	l-2-52h12L52,74z"/>
</svg>
