<?xml version="1.0" encoding="utf-8"?>
<!-- Generator: Adobe Illustrator 21.0.0, SVG Export Plug-In . SVG Version: 6.00 Build 0)  -->
<svg version="1.1" id="Layer_1" xmlns="http://www.w3.org/2000/svg" xmlns:xlink="http://www.w3.org/1999/xlink" x="0px" y="0px"
	 viewBox="0 0 96 96" style="enable-background:new 0 0 96 96;" xml:space="preserve">
<style type="text/css">
	.st0{fill:#C0C0C0;}
	.st1{fill:#58BA53;}
</style>
<g>
	<path class="st0" d="M31.6,4.4c0-0.5,0.4-1,0.9-1.1l29.9-2.6c0.5,0,1,0.4,1.1,0.9l0.3,4c0.1,0.6-0.4,1-0.9,1.1L33,9.3
		c-0.5,0-1-0.3-1.1-0.9L31.6,4.4z"/>
</g>
<path class="st0" d="M83.5,47c-8.7-7.3-13-10.9-13.7-18.9S64.1,8.5,48.1,9.9S29.3,23.7,30,31.6c0.7,8-2.9,12.3-10.2,21
	s-6.7,14.6-6.7,14.6l1.2,13.9l79.7-7l-1-12C92.9,62.3,92.2,54.3,83.5,47z M47.6,74.1l-8-0.7l2.6-51.9l12,1.1L47.6,74.1z"/>
<g>
	<path class="st1" d="M36.4,82.2c0.1-0.6,0.6-1,1.1-0.9l10,0.9c0.5,0,1,0.5,0.9,1.1l-0.9,10c-0.1,0.6-0.6,1-1.1,0.9l-10-0.9
		c-0.5,0-1-0.5-0.9-1.1L36.4,82.2z"/>
</g>
<polygon class="st1" points="42.2,21.4 54.2,22.5 47.6,74.1 39.6,73.4 "/>
</svg>
