<?xml version="1.0" encoding="utf-8"?>
<!-- Generator: Adobe Illustrator 21.0.0, SVG Export Plug-In . SVG Version: 6.00 Build 0)  -->
<svg version="1.1" id="Layer_1" xmlns="http://www.w3.org/2000/svg" xmlns:xlink="http://www.w3.org/1999/xlink" x="0px" y="0px"
	 viewBox="0 0 96 96" style="enable-background:new 0 0 96 96;" xml:space="preserve">
<style type="text/css">
	.st0{fill:#C0C0C0;}
</style>
<path class="st0" d="M90,42H6c-1.1,0-2,0.9-2,2v6h4l6,40h68l6-40h4v-6C92,42.9,91.1,42,90,42z M64,64c0,1.1-0.9,2-2,2H34
	c-1.1,0-2-0.9-2-2V52c0-1.1,0.9-2,2-2h28c1.1,0,2,0.9,2,2V64z"/>
<rect x="13.7" y="24.8" transform="matrix(0.4472 -0.8944 0.8944 0.4472 -4.2981 47.181)" class="st0" width="44.7" height="4.5"/>
<rect x="57.8" y="4.6" transform="matrix(0.8944 -0.4472 0.4472 0.8944 -5.7083 29.6853)" class="st0" width="4.5" height="44.7"/>
</svg>
