<?xml version="1.0" encoding="utf-8"?>
<!-- Generator: Adobe Illustrator 21.0.0, SVG Export Plug-In . SVG Version: 6.00 Build 0)  -->
<svg version="1.1" id="Layer_1" xmlns="http://www.w3.org/2000/svg" xmlns:xlink="http://www.w3.org/1999/xlink" x="0px" y="0px"
	 viewBox="0 0 96 96" style="enable-background:new 0 0 96 96;" xml:space="preserve">
<style type="text/css">
	.st0{fill:none;stroke:#58BA53;stroke-width:2;stroke-miterlimit:10;}
	.st1{fill:none;stroke:#C0C0C0;stroke-width:2;stroke-linecap:round;stroke-linejoin:round;stroke-miterlimit:10;}
	.st2{fill:#C0C0C0;stroke:#C0C0C0;stroke-width:2;stroke-linecap:round;stroke-linejoin:round;stroke-miterlimit:10;}
	.st3{fill:none;stroke:#58BA53;stroke-width:2;stroke-linecap:round;stroke-linejoin:round;stroke-miterlimit:10;}
</style>
<ellipse class="st0" cx="48" cy="74.5" rx="44" ry="16.5"/>
<path class="st1" d="M65.5,42"/>
<polygon class="st2" points="70.5,57 83,48 83,76 70.5,85 48,80 48,52 "/>
<polyline class="st1" points="48,52 60.5,43 83,48 "/>
<path class="st1" d="M65.5,42"/>
<path class="st3" d="M48,10"/>
<line class="st1" x1="48" y1="24" x2="48" y2="12"/>
<line class="st1" x1="60.5" y1="54" x2="70.5" y2="46"/>
<polygon class="st2" points="48,52 48,80 25.5,85 13,76 13,48 25.5,57 "/>
<polyline class="st1" points="13,48 35.5,43 48,52 "/>
<path class="st1" d="M28,42"/>
<polygon class="st2" points="48,24 62,24 62,52 48,52 34,52 34,24 "/>
<line class="st1" x1="25.5" y1="46" x2="35.5" y2="54"/>
<polyline class="st1" points="34,24 34,12 62,12 62,24 "/>
</svg>
