<?xml version="1.0" encoding="utf-8"?>
<!-- Generator: Adobe Illustrator 21.0.0, SVG Export Plug-In . SVG Version: 6.00 Build 0)  -->
<svg version="1.1" id="Layer_1" xmlns="http://www.w3.org/2000/svg" xmlns:xlink="http://www.w3.org/1999/xlink" x="0px" y="0px"
	 viewBox="0 0 96 96" style="enable-background:new 0 0 96 96;" xml:space="preserve">
<style type="text/css">
	.st0{fill:#C0C0C0;stroke:#C0C0C0;stroke-width:2;stroke-linecap:round;stroke-linejoin:round;stroke-miterlimit:10;}
	.st1{fill:none;stroke:#C0C0C0;stroke-width:2;stroke-linecap:round;stroke-linejoin:round;stroke-miterlimit:10;}
</style>
<polygon class="st0" points="68,60 88,52 88,80 68,88 48,80 48,52 "/>
<polyline class="st1" points="48,52 68,44 88,52 "/>
<path class="st1" d="M68,44"/>
<polygon class="st0" points="28,60 48,52 48,80 28,88 8,80 8,52 "/>
<polyline class="st1" points="8,52 28,44 48,52 "/>
<path class="st1" d="M28,44"/>
<polygon class="st0" points="48,24 68,16 68,44 48,52 28,44 28,16 "/>
<polyline class="st1" points="28,16 48,8 68,16 "/>
<path class="st1" d="M48,8"/>
<line class="st1" x1="38" y1="20" x2="58" y2="12"/>
<line class="st1" x1="18" y1="56" x2="38" y2="48"/>
<line class="st1" x1="58" y1="56" x2="78" y2="48"/>
</svg>
