<?xml version="1.0" encoding="utf-8"?>
<!-- Generator: Adobe Illustrator 21.0.0, SVG Export Plug-In . SVG Version: 6.00 Build 0)  -->
<svg version="1.1" id="Layer_1" xmlns="http://www.w3.org/2000/svg" xmlns:xlink="http://www.w3.org/1999/xlink" x="0px" y="0px"
	 viewBox="0 0 96 96" style="enable-background:new 0 0 96 96;" xml:space="preserve">
<style type="text/css">
	.st0{fill:#C0C0C0;stroke:#C0C0C0;stroke-width:2;stroke-linecap:round;stroke-linejoin:round;stroke-miterlimit:10;}
	.st1{fill:none;stroke:#FFFFFF;stroke-width:2;stroke-linecap:round;stroke-linejoin:round;stroke-miterlimit:10;}
	.st2{fill:none;stroke:#C0C0C0;stroke-width:2;stroke-linecap:round;stroke-linejoin:round;stroke-miterlimit:10;}
	.st3{fill:#58BA53;stroke:#C0C0C0;stroke-linecap:round;stroke-linejoin:round;stroke-miterlimit:10;}
	.st4{fill:none;stroke:#58BA53;stroke-width:2;stroke-linecap:round;stroke-linejoin:round;stroke-miterlimit:10;}
</style>
<polygon class="st0" points="48,36 88,20 88,76 48,92 8,76 8,20 "/>
<line class="st1" x1="88" y1="48" x2="48" y2="64"/>
<line class="st1" x1="8" y1="48" x2="48" y2="64"/>
<path class="st2" d="M48,4"/>
<polyline class="st2" points="48,4 63,4 23,20 8,20 48,4 "/>
<polyline class="st2" points="48,36 32,24 72,8 88,20 "/>
<polygon class="st1" points="8,20 18,38 38,46 48,36 "/>
<polygon class="st3" points="24,20 56,7 65,11 32,24 42,32 12,20 "/>
<line class="st4" x1="25" y1="7" x2="29" y2="12"/>
<line class="st4" x1="72" y1="7" x2="67" y2="12"/>
<line class="st4" x1="48" y1="8" x2="48" y2="2"/>
</svg>
