<?xml version="1.0" encoding="utf-8"?>
<!-- Generator: Adobe Illustrator 21.0.0, SVG Export Plug-In . SVG Version: 6.00 Build 0)  -->
<svg version="1.1" id="Layer_1" xmlns="http://www.w3.org/2000/svg" xmlns:xlink="http://www.w3.org/1999/xlink" x="0px" y="0px"
	 viewBox="0 0 96 96" style="enable-background:new 0 0 96 96;" xml:space="preserve">
<style type="text/css">
	.st0{fill:none;stroke:#C0C0C0;stroke-width:2;stroke-linecap:round;stroke-linejoin:round;stroke-miterlimit:10;}
	.st1{fill:#C0C0C0;stroke:#C0C0C0;stroke-width:2;stroke-linecap:round;stroke-linejoin:round;stroke-miterlimit:10;}
</style>
<path class="st0" d="M144,26"/>
<polygon class="st1" points="48,32 68,24 68,36 48,44 28,36 28,24 "/>
<polyline class="st0" points="28,24 48,16 68,24 "/>
<path class="st0" d="M48,14"/>
<polygon class="st1" points="38,48 48,44 48,72 38,76 18,68 18,40 "/>
<polyline class="st0" points="48,44 38,48 18,40 28,36 48,44 "/>
<polygon class="st1" points="58,48 78,40 78,68 58,76 48,72 48,44 "/>
<polyline class="st0" points="78,40 58,48 48,44 68,36 78,40 "/>
<polygon class="st0" points="48,4 88,20 88,76 48,92 8,76 8,20 "/>
<polyline class="st0" points="12,6 12,86 88,86 "/>
</svg>
