<?xml version="1.0" encoding="utf-8"?>
<!-- Generator: Adobe Illustrator 21.0.0, SVG Export Plug-In . SVG Version: 6.00 Build 0)  -->
<svg version="1.1" id="Layer_1" xmlns="http://www.w3.org/2000/svg" xmlns:xlink="http://www.w3.org/1999/xlink" x="0px" y="0px"
	 viewBox="0 0 96 96" style="enable-background:new 0 0 96 96;" xml:space="preserve">
<style type="text/css">
	.st0{fill:none;stroke:#58BA53;stroke-width:2;stroke-linecap:round;stroke-linejoin:round;stroke-miterlimit:10;}
	.st1{fill:#C0C0C0;stroke:#C0C0C0;stroke-width:2;stroke-linecap:round;stroke-linejoin:round;stroke-miterlimit:10;}
	.st2{fill:none;stroke:#C0C0C0;stroke-width:2;stroke-linecap:round;stroke-linejoin:round;stroke-miterlimit:10;}
	.st3{fill:#58BA53;stroke:#58BA53;stroke-width:2;stroke-linecap:round;stroke-linejoin:round;stroke-miterlimit:10;}
</style>
<line class="st0" x1="8" y1="42" x2="23" y2="36"/>
<line class="st0" x1="88" y1="42" x2="73" y2="36"/>
<polygon class="st1" points="48,38 83,24 83,36 48,50 13,36 13,24 "/>
<polyline class="st2" points="13,24 48,10 83,24 "/>
<path class="st2" d="M48,8"/>
<line class="st2" x1="83" y1="60" x2="68" y2="54"/>
<line class="st2" x1="13" y1="60" x2="28" y2="54"/>
<polygon class="st3" points="48,58 88,42 88,54 48,70 8,54 8,42 "/>
<polygon class="st1" points="48,74 83,60 83,72 48,86 13,72 13,60 "/>
</svg>
