<?xml version="1.0" encoding="utf-8"?>
<!-- Generator: Adobe Illustrator 21.0.0, SVG Export Plug-In . SVG Version: 6.00 Build 0)  -->
<svg version="1.1" id="Layer_1" xmlns="http://www.w3.org/2000/svg" xmlns:xlink="http://www.w3.org/1999/xlink" x="0px" y="0px"
	 viewBox="0 0 96 96" style="enable-background:new 0 0 96 96;" xml:space="preserve">
<style type="text/css">
	.st0{fill:#C0C0C0;}
</style>
<g>
	<path class="st0" d="M37.8,5c0.1-0.5,0.6-1,1.2-1h18c0.5,0,1.1,0.4,1.2,1l3.7,22c0.1,0.5-0.3,1-0.8,1H35c-0.5,0-0.9-0.4-0.8-1
		L37.8,5z"/>
</g>
<g>
	<path class="st0" d="M91,37.8c0.5,0.1,1,0.6,1,1.2v18c0,0.5-0.4,1.1-1,1.2l-22,3.7c-0.5,0.1-1-0.3-1-0.8V35c0-0.5,0.4-0.9,1-0.8
		L91,37.8z"/>
</g>
<g>
	<path class="st0" d="M58,91.1c-0.1,0.5-0.6,1-1.2,1l-18-0.1c-0.5,0-1.1-0.4-1.2-1l-3.6-22c-0.1-0.5,0.3-1,0.8-1l26,0.1
		c0.5,0,0.9,0.4,0.8,1L58,91.1z"/>
</g>
<g>
	<path class="st0" d="M5,58c-0.5-0.1-1-0.6-1-1.2l0.1-18c0-0.5,0.4-1.1,1-1.2l22-3.6c0.5-0.1,1,0.3,1,0.8l-0.1,26
		c0,0.5-0.4,0.9-1,0.8L5,58z"/>
</g>
<g>
	<path class="st0" d="M48,18c-16,0-30,14-30,29.9C18,64,32,78,48,78s30-14,30-30.1C78,32,64,18,48,18z M62,52.9
		c0,0.5-0.3,1.3-0.7,1.7l-6.6,6.6c-0.4,0.4-1.2,0.7-1.7,0.7H43c-0.5,0-1.3-0.3-1.7-0.7l-6.6-6.6c-0.4-0.4-0.7-1.2-0.7-1.7v-10
		c0-0.5,0.3-1.3,0.7-1.7l6.6-6.6c0.4-0.4,1.2-0.7,1.7-0.7h10c0.5,0,1.3,0.3,1.7,0.7l6.6,6.6c0.4,0.4,0.7,1.2,0.7,1.7V52.9z"/>
</g>
</svg>
