<?xml version="1.0" encoding="utf-8"?>
<!-- Generator: Adobe Illustrator 21.0.0, SVG Export Plug-In . SVG Version: 6.00 Build 0)  -->
<svg version="1.1" id="Layer_1" xmlns="http://www.w3.org/2000/svg" xmlns:xlink="http://www.w3.org/1999/xlink" x="0px" y="0px"
	 viewBox="0 0 96 96" style="enable-background:new 0 0 96 96;" xml:space="preserve">
<style type="text/css">
	.st0{fill:#C0C0C0;}
	.st1{fill:#58BA53;}
</style>
<g>
	<path class="st0" d="M45.4,3.9c0.2-0.5,0.8-0.9,1.4-0.8l17.7,3.1c0.5,0.1,1,0.6,1,1.2l-0.2,22.3c0,0.5-0.5,0.9-1,0.8L38.7,26
		c-0.5-0.1-0.8-0.6-0.6-1.1L45.4,3.9z"/>
</g>
<g>
	<path class="st0" d="M92.1,45.4c0.5,0.2,0.9,0.8,0.8,1.4l-3.1,17.7c-0.1,0.5-0.6,1-1.2,1l-22.3-0.2c-0.5,0-0.9-0.5-0.8-1L70,38.7
		c0.1-0.5,0.6-0.8,1.1-0.6L92.1,45.4z"/>
</g>
<g>
	<path class="st0" d="M50.4,92.2c-0.2,0.5-0.8,0.9-1.4,0.8l-17.7-3.2c-0.5-0.1-1-0.6-1-1.2l0.3-22.3c0-0.5,0.5-0.9,1-0.8L57.1,70
		c0.5,0.1,0.8,0.6,0.6,1.1L50.4,92.2z"/>
</g>
<g>
	<path class="st0" d="M3.9,50.4C3.4,50.2,3,49.6,3.1,49l3.2-17.7c0.1-0.5,0.6-1,1.2-1l22.3,0.3c0.5,0,0.9,0.5,0.8,1L26,57.2
		c-0.1,0.5-0.6,0.8-1.1,0.6L3.9,50.4z"/>
</g>
<g>
	<path class="st1" d="M60.7,5.7c0.3-0.4,1-0.6,1.5-0.3l15.6,9c0.4,0.2,0.8,0.9,0.5,1.5l-7.8,20.9c-0.2,0.5-0.8,0.7-1.2,0.5
		L46.8,24.2c-0.4-0.2-0.6-0.8-0.2-1.3L60.7,5.7z"/>
</g>
<g>
	<path class="st1" d="M90.4,60.7c0.4,0.3,0.6,1,0.3,1.5l-9,15.6c-0.2,0.4-0.9,0.8-1.5,0.5l-20.9-7.8c-0.5-0.2-0.7-0.8-0.5-1.2
		l13-22.6c0.2-0.4,0.8-0.6,1.3-0.2L90.4,60.7z"/>
</g>
<g>
	<path class="st1" d="M35.1,90.3c-0.3,0.4-1,0.6-1.5,0.3l-15.5-9.1c-0.4-0.2-0.8-0.9-0.5-1.5l7.9-20.9c0.2-0.5,0.8-0.7,1.2-0.5
		l22.5,13.1c0.4,0.2,0.6,0.8,0.2,1.3L35.1,90.3z"/>
</g>
<g>
	<path class="st1" d="M5.8,35.2c-0.4-0.3-0.6-1-0.3-1.5l9.1-15.5c0.2-0.4,0.9-0.8,1.5-0.5L37,25.6c0.5,0.2,0.7,0.8,0.5,1.2
		L24.3,49.1c-0.2,0.4-0.8,0.6-1.3,0.2L5.8,35.2z"/>
</g>
<g>
	<path class="st1" d="M63,22c-13.9-8-33-2.9-40.9,10.9C14,46.9,19.2,66,33,74s33,2.9,41-11.1C82,49.2,76.9,30,63,22z M57.7,59.3
		c-0.2,0.4-0.9,1-1.5,1.1l-9,2.4c-0.5,0.1-1.4,0-1.8-0.2l-8.7-5c-0.4-0.2-1-0.9-1.1-1.5l-2.4-9c-0.1-0.5,0-1.4,0.2-1.8l5-8.7
		c0.2-0.4,0.9-1,1.5-1.1l9-2.4c0.5-0.1,1.4,0,1.8,0.2l8.7,5c0.4,0.2,1,0.9,1.1,1.5l2.4,9c0.1,0.5,0,1.4-0.2,1.8L57.7,59.3z"/>
</g>
</svg>
