<?xml version="1.0" encoding="utf-8"?>
<!-- Generator: Adobe Illustrator 21.0.0, SVG Export Plug-In . SVG Version: 6.00 Build 0)  -->
<svg version="1.1" id="Layer_1" xmlns="http://www.w3.org/2000/svg" xmlns:xlink="http://www.w3.org/1999/xlink" x="0px" y="0px"
	 viewBox="0 0 96 96" style="enable-background:new 0 0 96 96;" xml:space="preserve">
<style type="text/css">
	.st0{fill:#C0C0C0;}
</style>
<g>
	<path class="st0" d="M25,12c8,0,10,6,10,10c0,8-4,16-10,16s-10-8-10-16C15,18,17,12,25,12z"/>
</g>
<g>
	<path class="st0" d="M41,42c-2-4-10-4-10-4s0,2.9-3.8,3.8L25,44l4,14l-4,8l-4-8l4-14l-2.2-2.2C19,40.9,19,38,19,38s-8,0-10,4
		s2,28,2,28h28C39,70,43,46,41,42z"/>
</g>
<polygon class="st0" points="88,62 88,86 64,86 "/>
<g>
	<path class="st0" d="M61,12c8,0,10,6,10,10c0,8-4,16-10,16s-10-8-10-16C51,18,53,12,61,12z"/>
</g>
<g>
	<path class="st0" d="M77,42c-2-4-10-4-10-4s0,2.9-3.8,3.8L61,44l4,14l-4,8l-4-8l4-14l-2.2-2.2C55,40.9,55,38,55,38s-8,0-10,4
		s2,28,2,28h28C75,70,79,46,77,42z"/>
</g>
<rect x="8" y="72" class="st0" width="72" height="8"/>
</svg>
