<?xml version="1.0" encoding="utf-8"?>
<!-- Generator: Adobe Illustrator 21.0.0, SVG Export Plug-In . SVG Version: 6.00 Build 0)  -->
<svg version="1.1" id="Layer_1" xmlns="http://www.w3.org/2000/svg" xmlns:xlink="http://www.w3.org/1999/xlink" x="0px" y="0px"
	 viewBox="0 0 96 96" style="enable-background:new 0 0 96 96;" xml:space="preserve">
<style type="text/css">
	.st0{fill:#C0C0C0;}
	.st1{fill:#58BA53;stroke:#FFFFFF;stroke-miterlimit:10;}
</style>
<rect x="8" y="30" class="st0" width="24" height="4"/>
<path class="st0" d="M95,12H1c-0.5,0-1,0.5-1,1v74c0,0.5,0.5,1,1,1h94c0.5,0,1-0.5,1-1V13C96,12.5,95.5,12,95,12z M42,16
	c0,0,6,0,8,0s4,2,4,4s0,4,0,4h-4v-4h-4v4h-4V16z M94,75c0,0.5-0.3,1.3-0.7,1.7L89,81c0,0-5.5,0-6,0H13c-0.5,0-6,0-6,0l-4.3-4.3
	C2.3,76.3,2,75.5,2,75V25c0-0.5,0.5-1,1-1h90c0.5,0,1,0.5,1,1V75z"/>
<rect x="8" y="38" class="st0" width="24" height="16"/>
<rect x="8" y="58" class="st0" width="24" height="16"/>
<rect x="64" y="38" class="st0" width="24" height="16"/>
<rect x="64" y="58" class="st0" width="24" height="16"/>
<rect x="36" y="38" class="st0" width="24" height="16"/>
<rect x="36" y="58" class="st0" width="24" height="16"/>
<rect x="36" y="30" class="st0" width="24" height="4"/>
<rect x="64" y="30" class="st0" width="24" height="4"/>
<polygon class="st1" points="17,47 20,44 23,47 32,38 35,41 23,53 "/>
<polygon class="st1" points="45,47 48,44 51,47 60,38 63,41 51,53 "/>
<polygon class="st1" points="73,47 76,44 79,47 88,38 91,41 79,53 "/>
<polygon class="st1" points="17,67 20,64 23,67 32,58 35,61 23,73 "/>
</svg>
