<?xml version="1.0" encoding="utf-8"?>
<!-- Generator: Adobe Illustrator 21.0.0, SVG Export Plug-In . SVG Version: 6.00 Build 0)  -->
<svg version="1.1" id="Layer_1" xmlns="http://www.w3.org/2000/svg" xmlns:xlink="http://www.w3.org/1999/xlink" x="0px" y="0px"
	 viewBox="0 0 96 96" style="enable-background:new 0 0 96 96;" xml:space="preserve">
<style type="text/css">
	.st0{fill:#404040;stroke:#404040;stroke-width:2;stroke-linecap:round;stroke-linejoin:round;stroke-miterlimit:10;}
	.st1{fill:none;stroke:#404040;stroke-width:2;stroke-linecap:round;stroke-linejoin:round;stroke-miterlimit:10;}
	.st2{filter:url(#Adobe_OpacityMaskFilter);}
	
		.st3{mask:url(#SVGID_1_);fill:none;stroke:#FFFFFF;stroke-width:2;stroke-linecap:round;stroke-linejoin:round;stroke-miterlimit:10;}
	.st4{filter:url(#Adobe_OpacityMaskFilter_1_);}
	
		.st5{mask:url(#SVGID_2_);fill:none;stroke:#FFFFFF;stroke-width:2;stroke-linecap:round;stroke-linejoin:round;stroke-miterlimit:10;}
	.st6{fill:none;stroke:#C0C0C0;stroke-width:2;stroke-linecap:round;stroke-linejoin:round;stroke-miterlimit:10;}
	.st7{fill:#404040;stroke:#404040;stroke-width:2;stroke-miterlimit:10;}
	.st8{fill:#A0A0A0;}
</style>
<polygon class="st0" points="48,36 88,20 88,76 48,92 8,76 8,20 "/>
<polyline class="st1" points="8,20 48,4 88,20 "/>
<defs>
	<filter id="Adobe_OpacityMaskFilter" filterUnits="userSpaceOnUse" x="3" y="47" width="42" height="18">
		<feFlood  style="flood-color:white;flood-opacity:1" result="back"/>
		<feBlend  in="SourceGraphic" in2="back" mode="normal"/>
	</filter>
</defs>
<mask maskUnits="userSpaceOnUse" x="3" y="47" width="42" height="18" id="SVGID_1_">
	<g class="st2">
	</g>
</mask>
<line class="st3" x1="44" y1="64" x2="4" y2="48"/>
<defs>
	<filter id="Adobe_OpacityMaskFilter_1_" filterUnits="userSpaceOnUse" x="51" y="47" width="42" height="18">
		<feFlood  style="flood-color:white;flood-opacity:1" result="back"/>
		<feBlend  in="SourceGraphic" in2="back" mode="normal"/>
	</filter>
</defs>
<mask maskUnits="userSpaceOnUse" x="51" y="47" width="42" height="18" id="SVGID_2_">
	<g class="st4">
	</g>
</mask>
<line class="st5" x1="92" y1="48" x2="52" y2="64"/>
<path class="st6" d="M48,4"/>
<line class="st7" x1="68" y1="12" x2="28" y2="28"/>
<path class="st8" d="M42,40H31c-0.6,0-1-0.4-1-1v-5c0-4.4,3.6-8,8-8h20c4.4,0,8,3.6,8,8v11.5c0,1.5-0.9,2.9-2.2,3.6l-9.2,4.6
	c-0.3,0.2-0.6,0.5-0.6,0.9V56H42v-3.7c0-1.4,0.8-2.7,2.1-3.3l8.3-4.1c1-0.5,1.7-1.5,1.7-2.7V41c0-1.7-1.3-3-3-3h-7
	C42.9,38,42,38.9,42,40L42,40z"/>
<path class="st8" d="M52,70h-8c-1.1,0-2-0.9-2-2v-4c0-1.1,0.9-2,2-2h8c1.1,0,2,0.9,2,2v4C54,69.1,53.1,70,52,70z"/>
</svg>
